<svg width="17" height="17" viewBox="0 0 17 17" fill="none" xmlns="http://www.w3.org/2000/svg">
<g clip-path="url(#clip0_5_343)">
<path d="M11.9437 9.70937L14.5289 11.5291C14.6051 11.563 14.6885 11.5773 14.7715 11.5707C14.8546 11.5641 14.9347 11.5369 15.0046 11.4915C15.0745 11.4461 15.1319 11.384 15.1716 11.3107C15.2114 11.2375 15.2322 11.1555 15.2322 11.0722V5.0471C15.2322 4.96377 15.2114 4.88176 15.1716 4.80853C15.1319 4.73529 15.0745 4.67315 15.0046 4.62775C14.9347 4.58235 14.8546 4.55513 14.7715 4.54855C14.6885 4.54198 14.6051 4.55627 14.5289 4.59013L11.9437 6.4099C11.8781 6.45604 11.8246 6.51727 11.7877 6.58843C11.7508 6.65958 11.7315 6.73857 11.7314 6.81874V9.30053C11.7315 9.38069 11.7508 9.45968 11.7877 9.53084C11.8246 9.60199 11.8781 9.66322 11.9437 9.70937Z" stroke="black" stroke-width="1.00189" stroke-linecap="round" stroke-linejoin="round"/>
<path d="M8.60634 12.0608H2.85509C2.4244 12.0596 2.0117 11.8879 1.70716 11.5834C1.40261 11.2789 1.23097 10.8662 1.22974 10.4355V5.68444C1.23097 5.25375 1.40261 4.84105 1.70716 4.5365C2.0117 4.23196 2.4244 4.06032 2.85509 4.05908H8.62135C9.04803 4.0604 9.45686 4.23049 9.75858 4.5322C10.0603 4.83391 10.2304 5.24275 10.2317 5.66943V10.4355C10.2305 10.8662 10.0588 11.2789 9.75427 11.5834C9.44973 11.8879 9.03703 12.0596 8.60634 12.0608Z" stroke="black" stroke-width="1.00189" stroke-miterlimit="10"/>
</g>
<defs>
<clipPath id="clip0_5_343">
<rect width="16.0035" height="16.0035" fill="white" transform="translate(0.229004 0.0585938)"/>
</clipPath>
</defs>
</svg>
