<svg width="32" height="32" viewBox="0 0 32 32" fill="none" xmlns="http://www.w3.org/2000/svg">
<path fill-rule="evenodd" clip-rule="evenodd" d="M6.66669 2.66675H25.3334C27.5425 2.66675 29.3334 4.45761 29.3334 6.66675V20.0001C29.3334 22.2092 27.5425 24.0001 25.3334 24.0001H24V28.0001C23.9973 28.5384 23.6713 29.0222 23.1734 29.2267C23.0151 29.3014 22.8416 29.3379 22.6667 29.3334C22.3123 29.3355 21.9716 29.1963 21.72 28.9467L16.7867 24.0001H6.66669C4.45755 24.0001 2.66669 22.2092 2.66669 20.0001V6.66675C2.66669 4.45761 4.45755 2.66675 6.66669 2.66675ZM25.3334 21.3334C26.0697 21.3334 26.6667 20.7365 26.6667 20.0001V6.66675C26.6667 5.93037 26.0697 5.33341 25.3334 5.33341H6.66669C5.93031 5.33341 5.33335 5.93037 5.33335 6.66675V20.0001C5.33335 20.7365 5.93031 21.3334 6.66669 21.3334H17.3334C17.6878 21.3314 18.0284 21.4705 18.28 21.7201L21.3334 24.7867V22.6667C21.3334 21.9304 21.9303 21.3334 22.6667 21.3334H25.3334Z" fill="#fff"/>
</svg>
